<?xml version="1.0" encoding="UTF-8"?>
<svg id="Calque_1" xmlns="http://www.w3.org/2000/svg" version="1.1" viewBox="0 0 2050 410.6">
  <!-- Generator: Adobe Illustrator 29.3.1, SVG Export Plug-In . SVG Version: 2.1.0 Build 151)  -->
  <defs>
    <style>
      .st0 {
        fill: #cddbde;
      }
    </style>
  </defs>
  <g>
    <polygon class="st0" points="115.2 239.4 139.1 239.4 139.1 65.1 115 65.1 82 167.2 49.9 65.1 25 65.1 25 239.4 49.6 239.4 49.6 131 74.6 209.8 89.5 209.8 115.2 126.5 115.2 239.4"/>
    <path class="st0" d="M220.7,206.8l6.3,32.6h27.1l-41.1-174.3h-20.9l-41.1,174.3h27.1l6.3-32.6h36.4ZM202.5,112.9l13.4,69.3h-26.9l13.4-69.3Z"/>
    <polygon class="st0" points="292.9 129.2 333.6 239.3 355.6 239.3 355.6 65.1 331.1 65.1 331.1 180.3 290 65.1 268.3 65.1 268.3 239.3 292.9 239.3 292.9 129.2"/>
    <path class="st0" d="M453.6,221.7c3.2-6.4,4.9-14,4.9-23V65.1h-26.5v134.5c0,5-1.3,8.9-3.8,11.6-2.5,2.7-6.2,4-10.8,4s-8.1-1.3-10.6-4c-2.5-2.7-3.7-6.5-3.7-11.6V65.1h-26.5v133.7c0,9,1.6,16.6,4.8,23,3.2,6.4,7.8,11.2,14,14.5h0c6.1,3.3,13.4,5,22.1,5s16-1.7,22.1-5c6.1-3.3,10.8-8.1,14-14.5Z"/>
    <polygon class="st0" points="503.6 166.9 547.7 166.9 547.7 141.9 503.6 141.9 503.6 90.1 553.7 90.1 553.7 65.1 503.6 65.1 489.8 65.1 477.1 65.1 477.1 239.4 503.6 239.4 503.6 166.9"/>
    <path class="st0" d="M588.6,65.1l-41.1,174.3h27.1l6.3-32.6h36.4l6.3,32.6h27.1l-41.1-174.3h-20.9ZM585.7,182.2l13.4-69.3,13.4,69.3h-26.9Z"/>
    <path class="st0" d="M696.6,241.2c8.7,0,16.1-1.7,22.3-5.2,6.2-3.5,10.9-8.6,14.1-15.3,3.2-6.7,4.9-14.8,4.9-24.1v-10.7h-26.7v10.7c0,3.9-.6,7.2-1.7,10-1.1,2.7-2.8,4.8-4.9,6.3-2.2,1.5-4.9,2.2-8.1,2.2s-5.7-.7-7.8-2.2c-2.2-1.4-3.8-3.5-5-6.2-1.2-2.7-1.8-6-1.8-10v-88.8c0-3.9.6-7.3,1.8-10,1.2-2.8,2.9-4.9,5-6.3,2.2-1.4,4.7-2.2,7.8-2.2s5.8.7,8,2.2c2.2,1.4,3.9,3.6,5,6.4,1.1,2.8,1.7,6.1,1.7,10v10.7h26.7v-10.7c0-9.4-1.6-17.4-4.9-24.1-3.2-6.7-8-11.8-14.1-15.3-6.2-3.5-13.7-5.2-22.4-5.2s-16.1,1.8-22.3,5.3c-6.2,3.5-10.9,8.6-14.2,15.2-3.3,6.6-4.9,14.7-4.9,24.1v88.8c0,9.4,1.6,17.4,4.9,24,3.3,6.6,8,11.7,14.2,15.2h0c6.2,3.5,13.6,5.3,22.3,5.3Z"/>
    <polygon class="st0" points="746.2 90.1 776.3 90.1 776.3 239.4 802.5 239.4 802.5 90.1 832.6 90.1 832.6 65.1 746.2 65.1 746.2 90.1"/>
    <path class="st0" d="M923.4,198.7V65.1h-26.5v134.5c0,5-1.3,8.9-3.8,11.6-2.5,2.7-6.2,4-10.8,4s-8.1-1.3-10.6-4c-2.5-2.7-3.7-6.5-3.7-11.6V65.1h-26.5v133.7c0,9,1.6,16.6,4.8,23,3.2,6.4,7.8,11.2,14,14.5h0c6.1,3.3,13.4,5,22.1,5s16-1.7,22.1-5c6.1-3.3,10.8-8.1,14-14.5,3.2-6.4,4.9-14,4.9-23Z"/>
    <path class="st0" d="M968.2,165.7h14.7l22.2,73.7h28.6l-25.9-78.3c.1,0,.3-.1.4-.2,6.7-3.2,11.8-7.9,15.3-14,3.5-6.1,5.3-13.4,5.3-22v-20.4c0-8.3-1.8-15.4-5.3-21.4-3.5-5.9-8.6-10.5-15.3-13.5-6.7-3.1-14.7-4.6-24.1-4.6h-42.1v174.4h26.1v-73.7ZM986.1,90c3.3,0,6.2.7,8.6,2,2.4,1.3,4.3,3.2,5.5,5.7,1.2,2.5,1.9,5.4,1.9,8.9v18.6c0,3.4-.8,6.2-2,8.5-1.2,2.3-3.1,4-5.5,5.2-2.4,1.2-5.2,1.8-8.5,1.8h-17.9v-50.6h17.9Z"/>
    <polygon class="st0" points="1129.9 239.4 1129.9 214.1 1079.8 214.1 1079.8 165.4 1123.8 165.4 1123.8 140.2 1079.8 140.2 1079.8 90.4 1129.9 90.4 1129.9 65.1 1079.8 65.1 1066 65.1 1053.4 65.1 1053.4 239.4 1066 239.4 1079.8 239.4 1129.9 239.4"/>
    <path class="st0" d="M73.8,260c-4.2-2.2-9.3-3.3-15.2-3.3H25v128.6h33.6c5.9,0,11-1.1,15.2-3.3,4.2-2.2,7.4-5.4,9.7-9.6,2.2-4.2,3.4-9.2,3.4-15v-72.9c0-5.9-1.1-10.9-3.3-15.1-2.2-4.2-5.4-7.3-9.6-9.5ZM67.2,356.5c0,3.3-.8,5.9-2.4,7.7-1.6,1.8-4,2.7-7,2.7h-13.2v-91.6h13.2c3,0,5.3.9,7,2.7,1.6,1.8,2.4,4.3,2.4,7.7v70.9Z"/>
    <path class="st0" d="M150,259.1c-4.9-2.4-10.7-3.7-17.6-3.7s-12.7,1.2-17.6,3.7-8.6,6-11.1,10.7c-2.6,4.7-3.9,10.3-3.9,16.9v68.6c0,6.6,1.3,12.2,3.9,16.9,2.6,4.7,6.3,8.2,11.1,10.7s10.7,3.7,17.6,3.7,12.7-1.2,17.6-3.7c4.9-2.5,8.6-6,11.1-10.7,2.6-4.7,3.9-10.3,3.9-16.9v-68.6c0-6.6-1.3-12.2-3.9-16.9-2.6-4.7-6.3-8.3-11.1-10.7ZM145.4,354.3c0,2.8-.5,5.2-1.5,7.1-1,2-2.5,3.5-4.4,4.6-2,1.1-4.3,1.6-7,1.6s-5.1-.5-7-1.6c-2-1.1-3.4-2.6-4.4-4.6-1-2-1.5-4.3-1.5-7.1v-66.6c0-2.8.5-5.2,1.5-7.1,1-2,2.5-3.5,4.4-4.5,2-1,4.3-1.6,7-1.6s5.1.5,7,1.6c2,1,3.4,2.5,4.4,4.5,1,2,1.5,4.3,1.5,7.1v66.6Z"/>
    <polygon class="st0" points="246.3 256.7 222 332.1 198.3 256.7 180 256.7 180 385.3 198.1 385.3 198.1 305.3 216.5 363.5 227.5 363.5 246.5 302 246.5 385.3 264.1 385.3 264.1 256.7 246.3 256.7 246.3 256.7"/>
    <rect class="st0" x="279.8" y="256.7" width="19.5" height="128.6"/>
    <polygon class="st0" points="361.4 341.7 331.1 256.7 315 256.7 315 385.2 333.2 385.2 333.2 304 363.2 385.2 379.5 385.2 379.5 256.7 361.4 256.7 361.4 341.7"/>
    <rect class="st0" x="395.2" y="256.7" width="19.5" height="128.6"/>
    <path class="st0" d="M495.5,355.4v-68.6c0-6.6-1.3-12.2-3.9-16.9-2.6-4.7-6.3-8.3-11.1-10.7-4.9-2.4-10.7-3.7-17.6-3.7s-12.7,1.2-17.6,3.7c-4.9,2.4-8.6,6-11.1,10.7-2.6,4.7-3.9,10.3-3.9,16.9v68.6c0,6.6,1.3,12.2,3.9,16.9,2.6,4.7,6.3,8.2,11.1,10.7,4.9,2.5,10.7,3.7,17.6,3.7s12.7-1.2,17.6-3.7c1.1-.6,2.2-1.2,3.2-1.9l12.5,10.2,11.6-13.9-13.7-11.3c.9-3.2,1.4-6.8,1.4-10.8ZM463,367.6c-2.7,0-5.1-.5-7-1.6-2-1.1-3.4-2.6-4.4-4.6-1-2-1.5-4.3-1.5-7.1v-66.6c0-2.8.5-5.2,1.5-7.1,1-2,2.5-3.5,4.4-4.5,2-1,4.3-1.6,7-1.6s5.1.5,7,1.6c2,1,3.4,2.5,4.4,4.5,1,2,1.5,4.3,1.5,7.1v63.5l-6.8-5.6-11.6,13.9,9.4,7.7c-1.2.3-2.5.4-3.9.4Z"/>
    <path class="st0" d="M553.2,356c0,3.7-.9,6.6-2.8,8.5-1.9,2-4.6,3-7.9,3s-6-1-7.8-3c-1.8-2-2.8-4.8-2.8-8.5v-99.2h-19.5v98.6c0,6.6,1.2,12.2,3.5,16.9,2.3,4.7,5.8,8.3,10.3,10.7,4.5,2.4,9.9,3.7,16.3,3.7s11.8-1.2,16.3-3.7c4.5-2.4,7.9-6,10.3-10.7,2.4-4.7,3.6-10.3,3.6-16.9v-98.6h-19.5v99.2Z"/>
    <polygon class="st0" points="595.8 256.7 586.4 256.7 586.4 385.3 595.8 385.3 606 385.3 642.9 385.3 642.9 366.7 606 366.7 606 330.8 638.5 330.8 638.5 312.2 606 312.2 606 275.4 642.9 275.4 642.9 256.7 606 256.7 595.8 256.7"/>
    <path class="st0" d="M740.5,327.4c4.9-2.4,8.7-5.8,11.3-10.3,2.6-4.5,3.9-9.9,3.9-16.2v-15c0-6.1-1.3-11.4-3.9-15.8-2.6-4.4-6.4-7.7-11.3-10-4.9-2.3-10.8-3.4-17.8-3.4h-11.8s-19.3,0-19.3,0v128.7h19.3v-54.4h10.9l16.4,54.4h21.1l-19.1-57.8c0,0,.2,0,.3-.1ZM711,275.1h13.2c2.4,0,4.5.5,6.3,1.5,1.8,1,3.2,2.4,4.1,4.2.9,1.8,1.4,4,1.4,6.5v13.7c0,2.5-.6,4.5-1.5,6.2-.9,1.7-2.3,3-4,3.8-1.8.9-3.9,1.3-6.3,1.3h-13.2v-37.3ZM720.6,327h0s0,0,0,0h0Z"/>
    <polygon class="st0" points="783.1 256.7 773.8 256.7 773.8 385.3 783.1 385.3 793.3 385.3 830.2 385.3 830.2 366.7 793.3 366.7 793.3 330.8 825.8 330.8 825.8 312.2 793.3 312.2 793.3 275.4 830.2 275.4 830.2 256.7 793.3 256.7 783.1 256.7"/>
    <polygon class="st0" points="888.8 341.7 858.6 256.7 842.5 256.7 842.5 385.2 860.7 385.2 860.7 304 890.7 385.2 906.9 385.2 906.9 256.7 888.8 256.7 888.8 341.7"/>
    <path class="st0" d="M946,256.7l-30.4,128.6h20l4.7-24.1h26.9l4.7,24.1h20l-30.4-128.6h-15.4ZM943.8,343.1l9.9-51.1,9.9,51.1h-19.8Z"/>
    <path class="st0" d="M1034.8,356c0,3.7-.9,6.6-2.8,8.5-1.9,2-4.6,3-7.9,3s-6-1-7.8-3c-1.8-2-2.8-4.8-2.8-8.5v-99.2h-19.5v98.6c0,6.6,1.2,12.2,3.5,16.9,2.3,4.7,5.8,8.3,10.3,10.7,4.5,2.4,9.9,3.7,16.3,3.7s11.8-1.2,16.3-3.7c4.5-2.4,7.9-6,10.3-10.7,2.4-4.7,3.6-10.3,3.6-16.9v-98.6h-19.5v99.2Z"/>
    <path class="st0" d="M1126.5,269.5c-2.2-4.2-5.4-7.3-9.6-9.5-4.2-2.2-9.3-3.3-15.2-3.3h-33.6v128.6h33.6c5.9,0,11-1.1,15.2-3.3,4.2-2.2,7.4-5.4,9.7-9.6,2.2-4.2,3.4-9.2,3.4-15v-72.9c0-5.9-1.1-10.9-3.3-15.1ZM1110.2,356.5c0,3.3-.8,5.9-2.4,7.7-1.6,1.8-3.9,2.7-7,2.7h-13.2v-91.6h13.2c3,0,5.4.9,7,2.7,1.6,1.8,2.4,4.3,2.4,7.7v70.9Z"/>
  </g>
  <path class="st0" d="M1917.3,262.6v-29.1h-25.4v-117.8h-54.6v29.1h25.2v88.7h-25.4v29.1h80.3M1900.3,50.8c0-14-11.4-25.3-25.4-25.3s-25.4,11.3-25.4,25.3,11.4,25.3,25.4,25.3,25.4-11.3,25.4-25.3ZM1730.6,163.9c0-55.3,4.2-73.8,29.9-73.8s21,16.2,21,23.3h29.2c0-30.9-20.7-52.4-50.2-52.4s-44.6,12.9-52.9,37.6c-6.2,18.9-6.2,42.4-6.2,65.3s0,46.7,6.2,65.3c8.2,24.4,26.5,37.6,52.9,37.6s50.2-21.6,50.2-52.4h-29.2c0,7.1-2,23.3-21,23.3s-29.9-10.7-29.9-73.8ZM1603.1,113.5c0-13.6,10.7-23.3,25.4-23.3s25.4,9.8,25.4,23.3h29.2c0-29.8-23.4-52.4-54.6-52.4s-54.6,22.4-54.6,52.4,24.5,47.1,46.2,62.4c20.5,14.4,33.9,24.9,33.9,38.7s-10.7,23.3-25.4,23.3-25.4-9.8-25.4-23.3h-29.2c0,29.8,23.4,52.4,54.6,52.4s54.6-22.4,54.6-52.4-24.5-47.1-46.2-62.4c-20.5-14.4-33.9-24.9-33.9-38.7ZM1517.4,262.6h33.7V65.3h-29.2v125.6l-46.4-125.6h-33.7v197.3h29.2v-125.3l46.4,125.3ZM1307.1,262.6h104.6v-29.1h-75.6v-63.3h47.7v-29.1h-47.7v-46.7h75.6v-29.1h-104.6v197.3M1560.9,373.5v-61.1h-6.2l.2,72.2h30.8v-11.1h-24.8ZM1625.4,312.4h-31v72h31v-11.1h-24.8v-22.2h17.2v-11.1h-17.2v-16.4h24.8v-11.1ZM1640.5,332.6c0-5.8,3.8-9.6,9.1-9.6s8.9,4,8.9,9.6h6.2c0-3.6-.7-7.1-2-10.2-2.9-6.4-7.6-10.4-13.2-10.4s-5.1.9-7.6,2.9c-4.7,3.8-7.8,10.4-7.8,17.8s.7,7.8,2.2,10.7c2.9,5.6,6.5,8,12.9,11.3,6.2,3.1,9.1,5.1,9.1,9.8s-3.8,9.6-8.9,9.6-8.9-4-8.9-9.6h-6.2c0,3.6.7,7.1,2,10.2,2.9,6.4,7.6,10.4,13.2,10.4s5.1-.9,7.6-2.9c4.5-3.8,7.6-10.7,7.6-17.8s-.7-8-2-10.9c-2.9-5.6-6.7-7.8-13.2-11.3-6.5-2.9-9.1-4.9-9.1-9.6ZM1742.9,384.4l-13.6-72.2h-7.4l-13.6,72.2h6.5l3.3-18.2h14.9l3.6,18.2h6.2ZM1725.5,327.3l5.4,28h-10.7l5.4-28h0ZM1747.1,312.4v11.1h11.6v60.9h6.2v-60.9h11.6v-11.1h-29.4,0ZM1816.7,312.4h-31v72h31v-11.1h-24.8v-22.2h17.2v-11.1h-17.2v-16.4h24.8v-11.1ZM1834.1,373.5v-61.1h-6.2l.2,72.2h30.8v-11.1h-24.8ZM1897,312.4h-29.4v11.1h11.6v50h-11.6v11.1h29.4v-11.1h-11.6v-50h11.6v-11.1ZM1939.4,312.4h-31v72h31v-11.1h-24.8v-22.2h17.2v-11.1h-17.2v-16.4h24.8v-11.1ZM1973.3,352.6c5.8-3.1,9.8-10.9,9.8-19.3s-.7-7.1-2-10.2c-2.9-6.4-7.8-10.4-13.2-10.4h-17.4v71.8h6.2v-30.4h10l12,30.4h7.4l-12.9-31.8ZM1956.5,343.1v-19.3h11.4c5.4,0,8.9,4.2,8.9,9.8s-3.8,9.8-9.1,9.8h-11.2v-.2ZM2000.7,332.6c0-5.8,3.8-9.6,9.1-9.6s8.9,4,8.9,9.6h6.2c0-3.6-.7-7.1-2-10.2-2.9-6.4-7.6-10.4-13.2-10.4s-5.1.9-7.6,2.9c-4.7,3.8-7.8,10.4-7.8,17.8s.7,7.8,2.2,10.7c2.9,5.6,6.5,8,12.9,11.3,6.2,3.1,9.1,5.1,9.1,9.8s-3.8,9.6-8.9,9.6-8.9-4-8.9-9.6h-6.2c0,3.6.7,7.1,2,10.2,2.9,6.4,7.6,10.4,13.2,10.4s5.1-.9,7.6-2.9c4.5-3.8,7.6-10.7,7.6-17.8s-.7-8-2-10.9c-2.9-5.6-6.7-7.8-13.2-11.3-6.2-2.9-9.1-4.9-9.1-9.6Z"/>
  <path class="st0" d="M1221.6,227.1l-11.8,11.7-25.1-20.3v-26.6l36.9,35.3ZM1215.1,225.5l36.6-31.8v26.7l-30,21.7-37,36v-26.7l30.4-25.9ZM1227.6,232.3l24.1,17.3v26.9l-36.1-33.7,12-10.4h0Z"/>
</svg>