<?xml version="1.0" encoding="UTF-8"?>
<svg id="Calque_1" xmlns="http://www.w3.org/2000/svg" version="1.1" viewBox="0 0 2050 642.4">
  <!-- Generator: Adobe Illustrator 29.3.1, SVG Export Plug-In . SVG Version: 2.1.0 Build 151)  -->
  <defs>
    <style>
      .st0 {
        fill: #cddbde;
      }
    </style>
  </defs>
  <polygon class="st0" points="188.3 343.1 231.5 343.1 231.5 27.6 187.9 27.6 128.2 212.5 70.1 27.6 25 27.6 25 343.1 69.4 343.1 69.4 146.9 114.7 289.5 141.7 289.5 188.3 138.7 188.3 343.1"/>
  <path class="st0" d="M379.2,284.1l11.5,59h49L365.2,27.6h-37.9l-74.5,315.5h49l11.5-59h65.9ZM346.2,114.2l24.3,125.4h-48.7l24.3-125.4Z"/>
  <polygon class="st0" points="510 143.7 583.6 342.9 623.4 342.9 623.4 27.6 579 27.6 579 236.2 504.8 27.6 465.3 27.6 465.3 342.9 510 342.9 510 143.7"/>
  <path class="st0" d="M800.8,311.1c5.9-11.5,8.8-25.3,8.8-41.6V27.6h-47.9v243.5c0,9.1-2.3,16.1-6.9,20.9-4.6,4.9-11.2,7.3-19.5,7.3s-14.7-2.4-19.2-7.3c-4.5-4.8-6.8-11.8-6.8-20.9V27.6h-47.9v242c0,16.2,2.9,30.1,8.6,41.6,5.7,11.5,14.2,20.2,25.3,26.2h0c11.1,6,24.3,9,40,9s29-3,40.1-9c11-6,19.5-14.7,25.4-26.2Z"/>
  <polygon class="st0" points="891.3 211.8 971.2 211.8 971.2 166.7 891.3 166.7 891.3 73 982.1 73 982.1 27.6 891.3 27.6 866.5 27.6 843.4 27.6 843.4 343.1 891.3 343.1 891.3 211.8"/>
  <path class="st0" d="M1045.3,27.6l-74.5,315.5h49l11.5-59h65.9l11.5,59h49l-74.5-315.5h-37.9ZM1039.9,239.6l24.3-125.4,24.3,125.4h-48.7Z"/>
  <path class="st0" d="M1240.8,346.4c15.7,0,29.1-3.1,40.4-9.4,11.2-6.3,19.8-15.5,25.6-27.7,5.8-12.2,8.8-26.7,8.9-43.6v-19.3h-48.3v19.3c0,7.1-1,13.1-3,18-2,4.9-5,8.7-8.9,11.4-3.9,2.7-8.8,4-14.6,4s-10.2-1.3-14.2-3.9c-3.9-2.6-7-6.4-9.1-11.3-2.2-4.9-3.3-10.9-3.3-18V105.1c0-7.1,1.1-13.1,3.3-18.1,2.2-5,5.2-8.8,9.1-11.4,3.9-2.6,8.5-3.9,14.2-3.9s10.5,1.3,14.5,3.9c4,2.6,7,6.4,9,11.5,2,5.1,3,11.1,3,18v19.3h48.3v-19.3c0-16.9-2.9-31.5-8.8-43.6-5.9-12.1-14.4-21.4-25.6-27.7-11.2-6.3-24.8-9.4-40.5-9.4s-29.1,3.2-40.3,9.5c-11.2,6.4-19.7,15.6-25.7,27.6-5.9,12-8.9,26.6-8.9,43.6v160.8c0,16.9,3,31.4,8.9,43.4,6,12,14.5,21.2,25.7,27.6h0c11.2,6.4,24.6,9.6,40.3,9.6Z"/>
  <polygon class="st0" points="1330.5 73 1385 73 1385 343.1 1432.4 343.1 1432.4 73 1486.9 73 1486.9 27.6 1330.5 27.6 1330.5 73"/>
  <path class="st0" d="M1651.3,269.6V27.6h-47.9v243.5c0,9.1-2.3,16.1-6.9,20.9-4.6,4.9-11.2,7.3-19.5,7.3s-14.7-2.4-19.2-7.3c-4.5-4.8-6.8-11.8-6.8-20.9V27.6h-47.9v242c0,16.2,2.9,30.1,8.6,41.6,5.7,11.5,14.2,20.2,25.3,26.2h0c11.1,6,24.3,9,40,9s29-3,40.1-9c11-6,19.5-14.7,25.4-26.2,5.9-11.5,8.8-25.3,8.8-41.6Z"/>
  <path class="st0" d="M1732.3,209.7h26.7l40.2,133.4h51.8l-47-141.8c.2-.1.5-.2.7-.3,12.1-5.8,21.4-14.2,27.8-25.3,6.4-11.1,9.6-24.3,9.6-39.8v-36.9c0-15-3.2-28-9.6-38.7-6.4-10.8-15.6-18.9-27.7-24.5-12.1-5.6-26.6-8.4-43.6-8.4h-76.2v315.7h47.3v-133.4ZM1764.7,72.7c6,0,11.1,1.2,15.6,3.6,4.4,2.4,7.8,5.8,10,10.3,2.3,4.5,3.4,9.8,3.4,16.1v33.6c-.2,6.1-1.4,11.2-3.6,15.3-2.2,4.1-5.5,7.3-9.9,9.4-4.4,2.2-9.5,3.2-15.5,3.2h-32.4v-91.6h32.4Z"/>
  <polygon class="st0" points="2025 343.1 2025 297.3 1934.4 297.3 1934.4 209.2 2014.1 209.2 2014.1 163.7 1934.4 163.7 1934.4 73.4 2025 73.4 2025 27.6 1934.4 27.6 1909.3 27.6 1886.5 27.6 1886.5 343.1 1909.3 343.1 1934.4 343.1 2025 343.1"/>
  <path class="st0" d="M113.4,380.4c-7.6-3.9-16.8-5.9-27.5-5.9H25v232.8h60.7c10.7,0,19.9-2,27.5-5.9,7.6-4,13.4-9.7,17.5-17.3,4.1-7.6,6.1-16.7,6.1-27.2v-131.9c0-10.7-2-19.8-6-27.3-4-7.5-9.8-13.3-17.4-17.2ZM101.3,555.1c0,6-1.5,10.6-4.4,13.9-3,3.2-7.2,4.9-12.6,4.9h-23.9v-165.8h23.9c5.5,0,9.7,1.6,12.6,4.9,2.9,3.3,4.4,7.9,4.4,13.9v128.4Z"/>
  <path class="st0" d="M251.4,378.8c-8.8-4.4-19.4-6.6-31.8-6.6s-23,2.2-31.8,6.6-15.5,10.9-20.2,19.4c-4.7,8.5-7,18.7-7,30.7v124.2c0,12,2.3,22.1,7,30.6,4.7,8.4,11.4,14.9,20.2,19.4s19.4,6.7,31.8,6.7,23-2.2,31.8-6.7c8.8-4.5,15.5-10.9,20.2-19.4,4.7-8.4,7-18.6,7-30.6v-124.2c0-11.9-2.3-22.2-7-30.7-4.7-8.5-11.4-14.9-20.2-19.4ZM243,551.1c0,5-.9,9.3-2.7,12.9-1.8,3.6-4.5,6.3-8,8.3-3.5,1.9-7.8,2.9-12.7,2.9s-9.2-1-12.7-2.9c-3.5-1.9-6.2-4.7-8-8.3-1.8-3.6-2.7-7.9-2.7-12.9v-120.5c0-5,.9-9.3,2.7-12.9,1.8-3.6,4.5-6.3,8-8.2,3.5-1.9,7.8-2.8,12.7-2.8s9.2.9,12.7,2.8c3.5,1.9,6.2,4.6,8,8.2,1.8,3.6,2.7,7.9,2.7,12.9v120.5Z"/>
  <polygon class="st0" points="425.7 374.5 381.7 510.9 338.8 374.5 305.5 374.5 305.5 607.3 338.3 607.3 338.3 462.5 371.7 567.7 391.6 567.7 426 456.5 426 607.3 457.8 607.3 457.8 374.5 425.7 374.5 425.7 374.5"/>
  <rect class="st0" x="486.2" y="374.5" width="35.3" height="232.8"/>
  <polygon class="st0" points="633.9 528.4 579.1 374.5 550 374.5 550 607.1 583 607.1 583 460.1 637.3 607.1 666.7 607.1 666.7 374.5 633.9 374.5 633.9 528.4"/>
  <rect class="st0" x="695.1" y="374.5" width="35.3" height="232.8"/>
  <path class="st0" d="M876.8,553v-124.2c0-11.9-2.3-22.2-7-30.7-4.7-8.5-11.4-14.9-20.2-19.4-8.8-4.4-19.4-6.6-31.8-6.6s-23,2.2-31.8,6.6c-8.8,4.4-15.5,10.9-20.2,19.4-4.7,8.5-7,18.7-7,30.7v124.2c0,12,2.3,22.1,7,30.6,4.7,8.4,11.4,14.9,20.2,19.4,8.8,4.5,19.4,6.7,31.8,6.7s23-2.2,31.8-6.7c2.1-1.1,4-2.2,5.8-3.5l22.6,18.6,21-25.1-24.8-20.4c1.7-5.9,2.5-12.3,2.5-19.5ZM817.8,575.1c-4.9,0-9.2-1-12.7-2.9-3.5-1.9-6.2-4.7-8-8.3-1.8-3.6-2.7-7.9-2.7-12.9v-120.5c0-5,.9-9.3,2.7-12.9,1.8-3.6,4.5-6.3,8-8.2,3.5-1.9,7.8-2.8,12.7-2.8s9.2.9,12.7,2.8c3.5,1.9,6.2,4.6,8,8.2,1.8,3.6,2.7,7.9,2.7,12.9v114.9l-12.4-10.2-21,25.1,17,14c-2.2.5-4.5.8-7.1.8Z"/>
  <path class="st0" d="M981.1,554.1c0,6.7-1.7,11.9-5.1,15.4-3.4,3.6-8.3,5.4-14.4,5.4s-10.8-1.8-14.1-5.4c-3.3-3.6-5-8.7-5-15.4v-179.6h-35.3v178.5c0,12,2.1,22.2,6.3,30.7,4.2,8.5,10.4,14.9,18.6,19.4,8.2,4.4,17.9,6.6,29.5,6.6s21.4-2.2,29.6-6.6c8.1-4.4,14.4-10.9,18.7-19.4,4.3-8.5,6.5-18.7,6.5-30.7v-178.5h-35.3v179.6Z"/>
  <polygon class="st0" points="1058.2 374.5 1041.3 374.5 1041.3 607.3 1058.2 607.3 1076.6 607.3 1143.5 607.3 1143.5 573.5 1076.6 573.5 1076.6 508.5 1135.4 508.5 1135.4 474.9 1076.6 474.9 1076.6 408.3 1143.5 408.3 1143.5 374.5 1076.6 374.5 1058.2 374.5"/>
  <path class="st0" d="M1320.1,502.5c8.9-4.3,15.8-10.5,20.5-18.7,4.7-8.2,7.1-18,7.1-29.4v-27.2c0-11.1-2.4-20.6-7.1-28.6-4.7-8-11.5-14-20.4-18.1-8.9-4.1-19.6-6.2-32.1-6.2h-21.3s-34.9,0-34.9,0v232.9h34.9v-98.4h19.7l29.6,98.4h38.2l-34.7-104.6c.2,0,.3-.1.5-.2ZM1266.7,407.8h23.9c4.4,0,8.2.9,11.5,2.7,3.3,1.8,5.7,4.3,7.4,7.6,1.7,3.3,2.5,7.3,2.5,11.8v24.8c-.1,4.5-1,8.2-2.7,11.3-1.7,3-4.1,5.4-7.3,7-3.2,1.6-7,2.4-11.4,2.4h-23.9v-67.5ZM1284.2,501.6h0s0,0,0,0h0Z"/>
  <polygon class="st0" points="1397.3 374.5 1380.4 374.5 1380.4 607.3 1397.3 607.3 1415.8 607.3 1482.6 607.3 1482.6 573.5 1415.8 573.5 1415.8 508.5 1474.6 508.5 1474.6 474.9 1415.8 474.9 1415.8 408.3 1482.6 408.3 1482.6 374.5 1415.8 374.5 1397.3 374.5"/>
  <polygon class="st0" points="1588.6 528.4 1533.9 374.5 1504.8 374.5 1504.8 607.1 1537.7 607.1 1537.7 460.1 1592 607.1 1621.4 607.1 1621.4 374.5 1588.6 374.5 1588.6 528.4"/>
  <path class="st0" d="M1692.1,374.5l-54.9,232.8h36.1l8.5-43.5h48.7l8.5,43.5h36.1l-54.9-232.8h-28ZM1688.1,530.9l18-92.5,18,92.5h-35.9Z"/>
  <path class="st0" d="M1852.9,554.1c0,6.7-1.7,11.9-5.1,15.4-3.4,3.6-8.3,5.4-14.4,5.4s-10.8-1.8-14.1-5.4c-3.3-3.6-5-8.7-5-15.4v-179.6h-35.3v178.5c0,12,2.1,22.2,6.3,30.7,4.2,8.5,10.4,14.9,18.6,19.4,8.2,4.4,17.9,6.6,29.5,6.6s21.4-2.2,29.6-6.6c8.1-4.4,14.4-10.9,18.7-19.4,4.3-8.5,6.5-18.7,6.5-30.7v-178.5h-35.3v179.6Z"/>
  <path class="st0" d="M2019,397.6c-4-7.5-9.8-13.3-17.4-17.2-7.6-3.9-16.8-5.9-27.5-5.9h-60.9v232.8h60.7c10.7,0,19.9-2,27.5-5.9,7.6-4,13.4-9.7,17.5-17.3,4.1-7.6,6.1-16.7,6.1-27.2v-131.9c0-10.7-2-19.8-6-27.3ZM1989.5,555.1c0,6-1.5,10.6-4.4,13.9-2.9,3.2-7.1,4.9-12.6,4.9h-23.9v-165.8h23.9c5.5,0,9.7,1.6,12.6,4.9,2.9,3.3,4.4,7.9,4.4,13.9v128.4Z"/>
</svg>