<?xml version="1.0" encoding="UTF-8"?>
<svg id="Calque_1" xmlns="http://www.w3.org/2000/svg" version="1.1" viewBox="0 0 2050 1050">
  <!-- Generator: Adobe Illustrator 29.3.1, SVG Export Plug-In . SVG Version: 2.1.0 Build 151)  -->
  <defs>
    <style>
      .st0 {
        fill: #cddbde;
      }
    </style>
  </defs>
  <path class="st0" d="M1724.9,685.6v-81.1h-70.8v-328.1h-152.2v81.1h70.2v247h-70.8v81.1h223.7M1677.7,95.6c0-39-31.7-70.6-70.8-70.6s-70.8,31.6-70.8,70.6,31.7,70.6,70.8,70.6,70.8-31.6,70.8-70.6ZM1204.8,410.7c0-154.2,11.8-205.5,83.3-205.5s58.4,45.2,58.4,65h81.4c0-86.1-57.8-146.1-139.8-146.1s-124.3,35.9-147.3,104.6c-17.4,52.6-17.4,118.3-17.4,182s0,130,17.4,182c23,68.1,73.9,104.6,147.3,104.6s139.8-60,139.8-146.1h-81.4c0,19.8-5.6,65-58.4,65s-83.3-29.7-83.3-205.5ZM849.5,270.2c0-37.8,29.8-65,70.8-65s70.8,27.2,70.8,65h81.4c0-83-65.2-146.1-152.2-146.1s-152.2,62.5-152.2,146.1,68.3,131.3,128.6,174c57.2,40.2,94.4,69.3,94.4,107.7s-29.8,65-70.8,65-70.8-27.2-70.8-65h-81.4c0,83,65.2,146.1,152.2,146.1s152.2-62.5,152.2-146.1-68.3-131.3-128.6-174c-57.2-40.2-94.4-69.3-94.4-107.7ZM610.9,685.6h93.8V135.8h-81.4v349.8l-129.2-349.8h-93.8v549.8h81.4v-349.2l129.2,349.2ZM25,685.6h291.4v-81.1H105.8v-176.5h133v-81.1H105.8v-130h210.6v-81.1H25v549.8M732.1,994.5v-170.3h-17.4l.6,201.2h85.7v-30.9h-69ZM911.6,824.3h-86.4v200.6h86.4v-30.9h-69v-61.9h47.8v-31h-47.8v-45.8h69v-31ZM953.9,880.6c0-16.1,10.6-26.6,25.5-26.6s24.9,11.1,24.9,26.6h17.4c0-9.9-1.9-19.8-5.6-28.5-8.1-18-21.1-29.1-36.7-29.1s-14.3,2.5-21.1,8.1c-13,10.5-21.7,29.1-21.7,49.5s1.9,21.7,6.2,29.7c8.1,15.5,18,22.3,36,31.6,17.4,8.7,25.5,14.2,25.5,27.2s-10.6,26.6-24.9,26.6-24.9-11.1-24.9-26.6h-17.4c0,9.9,1.9,19.8,5.6,28.5,8.1,18,21.1,29.1,36.7,29.1s14.3-2.5,21.1-8.1c12.4-10.5,21.1-29.7,21.1-49.5s-1.9-22.3-5.6-30.3c-8.1-15.5-18.6-21.7-36.7-31.6-18-8.1-25.5-13.6-25.5-26.6ZM1239,1024.9l-37.9-201.2h-20.5l-37.9,201.2h18l9.3-50.8h41.6l9.9,50.8h17.4ZM1190.6,865.7l14.9,78h-29.8l14.9-78h0ZM1250.8,824.3v31h32.3v169.6h17.4v-169.6h32.3v-31h-82,0ZM1444.7,824.3h-86.4v200.6h86.4v-30.9h-69v-61.9h47.8v-31h-47.8v-45.8h69v-31ZM1493.1,994.5v-170.3h-17.4l.6,201.2h85.7v-30.9h-69ZM1668.3,824.3h-82v31h32.3v139.3h-32.3v30.9h82v-30.9h-32.3v-139.3h32.3v-31ZM1786.4,824.3h-86.4v200.6h86.4v-30.9h-69v-61.9h47.8v-31h-47.8v-45.8h69v-31ZM1880.8,936.3c16.2-8.7,27.3-30.3,27.3-53.9s-1.9-19.8-5.6-28.5c-8.1-18-21.7-29.1-36.7-29.1h-48.5v200h17.4v-84.8h28l33.6,84.8h20.5l-36.1-88.5ZM1834.2,909.7v-53.9h31.7c14.9,0,24.9,11.8,24.9,27.2s-10.6,27.2-25.5,27.2h-31.1v-.6ZM1957.3,880.6c0-16.1,10.6-26.6,25.5-26.6s24.9,11.1,24.9,26.6h17.4c0-9.9-1.9-19.8-5.6-28.5-8.1-18-21.1-29.1-36.7-29.1s-14.3,2.5-21.1,8.1c-13,10.5-21.7,29.1-21.7,49.5s1.9,21.7,6.2,29.7c8.1,15.5,18,22.3,36,31.6,17.4,8.7,25.5,14.2,25.5,27.2s-10.6,26.6-24.9,26.6-24.9-11.1-24.9-26.6h-17.4c0,9.9,1.9,19.8,5.6,28.5,8.1,18,21.1,29.1,36.7,29.1s14.3-2.5,21.1-8.1c12.4-10.5,21.1-29.7,21.1-49.5s-1.9-22.3-5.6-30.3c-8.1-15.5-18.6-21.7-36.7-31.6-17.4-8.1-25.5-13.6-25.5-26.6Z"/>
</svg>