<svg width="110" height="100" viewBox="0 0 110 100" fill="none" xmlns="http://www.w3.org/2000/svg">
<g clip-path="url(#clip0_20_1845)">
<path d="M93.4945 81.2379V76.7768H89.5994V58.7294H81.2273V63.1905H85.0883V76.7768H81.1932V81.2379H93.4956M90.8974 48.7866C90.8974 46.6415 89.155 44.9053 87.0023 44.9053C84.8496 44.9053 83.1072 46.6415 83.1072 48.7866C83.1072 50.9317 84.8496 52.6679 87.0023 52.6679C89.155 52.6679 90.8974 50.9317 90.8974 48.7866ZM64.8923 66.1193C64.8923 57.6409 65.5413 54.8141 69.4716 54.8141C72.3767 54.8141 72.6836 57.3 72.6836 58.3896H77.1606C77.1606 53.6566 73.9827 50.354 69.4716 50.354C65.439 50.354 62.6373 52.3292 61.3723 56.1086C60.4153 59.0034 60.4153 62.6129 60.4153 66.1193C60.4153 69.6258 60.4153 73.2703 61.3723 76.1301C62.6362 79.8755 65.439 81.8846 69.4716 81.8846C74.0168 81.8846 77.1606 78.5821 77.1606 73.8491H72.6836C72.6836 74.9386 72.3756 77.4246 69.4716 77.4246C66.0198 77.4246 64.8923 75.7903 64.8923 66.1193ZM45.3464 58.3896C45.3464 56.3125 46.9865 54.8141 49.2415 54.8141C51.4965 54.8141 53.1366 56.3125 53.1366 58.3896H57.6136C57.6136 53.8265 54.0254 50.354 49.2415 50.354C44.4576 50.354 40.8694 53.7936 40.8694 58.3896C40.8694 62.9856 44.6281 65.6085 47.9435 67.9575C51.0873 70.1705 53.1377 71.7708 53.1377 73.8819C53.1377 75.993 51.4976 77.4574 49.2426 77.4574C46.9876 77.4574 45.3475 75.9591 45.3475 73.8819H40.8705C40.8705 78.445 44.4587 81.9175 49.2426 81.9175C54.0265 81.9175 57.6147 78.4779 57.6147 73.8819C57.6147 69.286 53.856 66.663 50.5406 64.314C47.3968 62.101 45.3464 60.5007 45.3464 58.3896ZM32.2245 81.2379H37.3846V51.0007H32.9076V70.2396L25.7994 51.0007H20.6393V81.2379H25.1163V62.033L32.2245 81.2379ZM0 81.2379H16.027V76.7768H4.4429V67.0718H11.7557V62.6107H4.4429V55.4597H16.027V50.9985H0V81.2357M38.8883 98.2287V88.8646H37.9313L37.9654 99.9309H42.6811V98.2287H38.8883ZM48.7641 88.8646H44.0143V99.8969H48.7641V98.1947H44.9713V94.7891H47.6025V93.0868H44.9713V90.5669H48.7641V88.8646ZM51.0873 91.9633C51.0873 91.0777 51.6681 90.4989 52.4887 90.4989C53.3093 90.4989 53.856 91.1116 53.856 91.9633H54.813C54.813 91.4186 54.7107 90.8738 54.505 90.397C54.0606 89.4094 53.3434 88.7967 52.4887 88.7967C52.0784 88.7967 51.7022 88.9326 51.3271 89.2395C50.6099 89.8182 50.1314 90.8398 50.1314 91.9633C50.1314 92.61 50.2337 93.1548 50.4735 93.5976C50.9179 94.4493 51.4646 94.8231 52.4557 95.3339C53.4127 95.8107 53.8571 96.1176 53.8571 96.8322C53.8571 97.6839 53.2763 98.2966 52.4898 98.2966C51.7033 98.2966 51.1225 97.6839 51.1225 96.8322H50.1655C50.1655 97.377 50.2678 97.9218 50.4735 98.3986C50.9179 99.3862 51.6351 99.9989 52.4898 99.9989C52.9001 99.9989 53.2763 99.863 53.6514 99.5561C54.3345 98.9773 54.813 97.9218 54.813 96.8322C54.813 96.1855 54.7107 95.6068 54.505 95.164C54.0606 94.3123 53.4798 93.9725 52.4887 93.4277C51.4976 92.9849 51.0873 92.6791 51.0873 91.9633ZM66.7722 99.898L64.6877 88.8317H63.5602L61.4757 99.898H62.4668L62.9794 97.1063H65.2685L65.8152 99.898H66.7722ZM64.1069 91.1467L64.9275 95.4369H63.2874L64.108 91.1467H64.1069ZM67.4212 88.8646V90.5669H69.1977V99.8969H70.1547V90.5669H71.9312V88.8646H67.4201H67.4212ZM78.0835 88.8646H73.3337V99.8969H78.0835V98.1947H74.2907V94.7891H76.9219V93.0868H74.2907V90.5669H78.0835V88.8646ZM80.7488 98.2287V88.8646H79.7918L79.8259 99.9309H84.5416V98.2287H80.7488ZM90.3848 88.8646H85.8737V90.5669H87.6502V98.2287H85.8737V99.9309H90.3848V98.2287H88.6083V90.5669H90.3848V88.8646ZM96.8781 88.8646H92.1283V99.8969H96.8781V98.1947H93.0853V94.7891H95.7165V93.0868H93.0853V90.5669H96.8781V88.8646ZM102.072 95.028C102.961 94.5512 103.576 93.3598 103.576 92.0653C103.576 91.4865 103.474 90.9757 103.268 90.4989C102.824 89.5113 102.072 88.8986 101.252 88.8986H98.5864V99.8969H99.5434V95.2319H101.081L102.927 99.8969H104.055L102.072 95.028ZM99.5093 93.5647V90.602H101.252C102.072 90.602 102.619 91.2487 102.619 92.1003C102.619 92.952 102.038 93.5987 101.218 93.5987H99.5093V93.5647ZM106.275 91.9633C106.275 91.0777 106.856 90.4989 107.677 90.4989C108.497 90.4989 109.044 91.1116 109.044 91.9633H110.001C110.001 91.4186 109.899 90.8738 109.693 90.397C109.249 89.4094 108.531 88.7967 107.677 88.7967C107.266 88.7967 106.89 88.9326 106.515 89.2395C105.798 89.8182 105.32 90.8398 105.32 91.9633C105.32 92.61 105.422 93.1548 105.662 93.5976C106.106 94.4493 106.653 94.8231 107.644 95.3339C108.601 95.8107 109.045 96.1176 109.045 96.8322C109.045 97.6839 108.464 98.2966 107.678 98.2966C106.891 98.2966 106.311 97.6839 106.311 96.8322H105.354C105.354 97.377 105.456 97.9218 105.662 98.3986C106.106 99.3862 106.823 99.9989 107.678 99.9989C108.088 99.9989 108.464 99.863 108.84 99.5561C109.523 98.9773 110.001 97.9218 110.001 96.8322C110.001 96.1855 109.899 95.6068 109.693 95.164C109.249 94.3123 108.668 93.9725 107.677 93.4277C106.72 92.9849 106.275 92.6791 106.275 91.9633Z" fill="#CDDBDE"/>
<path d="M8.9595 0.178711H11.3553V17.5323H8.9837V4.90512L9.1751 5.66911L6.4207 14.5848H4.9357L2.1802 5.90806L2.4442 4.90512V17.5323H0V0.178711H2.4794L5.6771 10.3473L8.9595 0.178711Z" fill="#CDDBDE"/>
<path d="M16.6244 0.178711H18.7089L22.8053 17.5323H20.1103L17.6672 4.94129L15.2241 17.5323H12.5291L16.6244 0.178711ZM15.2351 11.8391H20.1939V14.2856H15.2351V11.8391Z" fill="#CDDBDE"/>
<path d="M24.2188 0.178711H26.3869L30.8188 12.6272L30.4712 13.0086V0.178711H32.9143V17.5202H30.722L26.3264 5.62088L26.674 5.22738V17.5202H24.2188V0.178711Z" fill="#CDDBDE"/>
<path d="M36.8721 17.2166C36.2616 16.8867 35.7985 16.4055 35.4828 15.773C35.1671 15.1406 35.0098 14.3788 35.0098 13.4876V0.178711H37.6443V13.5698C37.6443 14.0708 37.7675 14.4555 38.0161 14.7219C38.2636 14.9882 38.6145 15.1219 39.0699 15.1219C39.5253 15.1219 39.8905 14.9893 40.1424 14.7219C40.3943 14.4555 40.5197 14.0719 40.5197 13.5698V0.178711H43.1542V13.4865C43.1542 14.3777 42.9925 15.1395 42.6691 15.7719C42.3457 16.4044 41.8804 16.8856 41.2732 17.2155C40.666 17.5454 39.9323 17.7109 39.0699 17.7109C38.2075 17.7109 37.4826 17.5454 36.8721 17.2155V17.2166Z" fill="#CDDBDE"/>
<path d="M45.011 0.178711H47.6455V17.5323H45.011V0.178711ZM46.2804 0.178711H52.6406V2.67345H46.2804V0.178711ZM46.2804 7.82954H52.0411V10.3122H46.2804V7.82954Z" fill="#CDDBDE"/>
<path d="M56.1143 0.178711H58.1988L62.2952 17.5323H59.6002L57.1571 4.94129L54.714 17.5323H52.019L56.1143 0.178711ZM54.725 11.8391H59.6838V14.2856H54.725V11.8391Z" fill="#CDDBDE"/>
<path d="M64.6536 17.1859C64.0387 16.8362 63.5679 16.3309 63.2401 15.6699C62.9123 15.0101 62.7495 14.2143 62.7495 13.2826V4.44033C62.7495 3.50206 62.9134 2.7019 63.2401 2.04095C63.5679 1.38109 64.0387 0.875789 64.6536 0.525035C65.2685 0.175377 66.0066 0 66.869 0C67.7314 0 68.4816 0.173185 69.0965 0.519555C69.7114 0.865924 70.18 1.37342 70.5034 2.04095C70.8268 2.70958 70.9885 3.50864 70.9885 4.44033V5.50246H68.3298V4.44033C68.3298 4.05888 68.2737 3.72786 68.1626 3.44945C68.0504 3.17104 67.8854 2.96058 67.6654 2.81699C67.4454 2.6734 67.1803 2.60216 66.869 2.60216C66.5577 2.60216 66.3058 2.6734 66.0902 2.81699C65.8746 2.96058 65.7074 3.16884 65.5875 3.44397C65.4676 3.71799 65.4082 4.05121 65.4082 4.44033V13.2837C65.4082 13.6739 65.4676 14.0039 65.5875 14.2746C65.7074 14.5453 65.8746 14.7525 66.0902 14.895C66.3058 15.0386 66.5654 15.1098 66.869 15.1098C67.188 15.1098 67.4564 15.0364 67.672 14.8895C67.8876 14.7426 68.0515 14.5333 68.1626 14.2625C68.2748 13.9918 68.3298 13.6619 68.3298 13.2717V12.2095H70.9885V13.2717C70.9808 14.2023 70.8169 15.0024 70.4968 15.671C70.1778 16.3397 69.7081 16.8472 69.0899 17.1924C68.4706 17.5388 67.7303 17.712 66.8679 17.712C66.0055 17.712 65.2674 17.5366 64.6525 17.187L64.6536 17.1859Z" fill="#CDDBDE"/>
<path d="M71.8047 0.178711H80.4045V2.67345H71.8047V0.178711ZM74.7989 1.61132H77.4103V17.5323H74.7989V1.61132Z" fill="#CDDBDE"/>
<path d="M83.1643 17.2166C82.5538 16.8867 82.0907 16.4055 81.775 15.773C81.4593 15.1406 81.302 14.3788 81.302 13.4876V0.178711H83.9376V13.5698C83.9376 14.0708 84.0608 14.4555 84.3094 14.7219C84.5569 14.9882 84.9078 15.1219 85.3632 15.1219C85.8186 15.1219 86.1838 14.9893 86.4357 14.7219C86.6876 14.4555 86.813 14.0719 86.813 13.5698V0.178711H89.4486V13.4865C89.4486 14.3777 89.2869 15.1395 88.9635 15.7719C88.6401 16.4044 88.1748 16.8856 87.5676 17.2155C86.9604 17.5454 86.2267 17.7109 85.3643 17.7109C84.5019 17.7109 83.777 17.5454 83.1665 17.2155L83.1643 17.2166Z" fill="#CDDBDE"/>
<path d="M91.3032 0.166504H93.9025V17.5321H91.3032V0.166504ZM92.5011 7.69785H95.6867C96.0145 7.69785 96.2972 7.63866 96.537 7.51919C96.7768 7.39971 96.9583 7.22653 97.0815 6.99963C97.2047 6.77274 97.2707 6.49214 97.2795 6.15782V4.30759C97.2795 3.96561 97.2179 3.67076 97.0936 3.42413C96.9693 3.17751 96.7856 2.98898 96.5425 2.85745C96.2983 2.72591 96.0134 2.66015 95.6856 2.66015H92.5V0.166504H95.4942C96.4281 0.166504 97.2267 0.319959 97.89 0.625773C98.5522 0.932682 99.0593 1.38209 99.4113 1.97398C99.7622 2.56698 99.9382 3.27725 99.9382 4.10482V6.13371C99.9382 6.98538 99.7622 7.71539 99.4113 8.32373C99.0604 8.93207 98.5511 9.39572 97.8845 9.71469C97.2179 10.0326 96.4215 10.1926 95.4953 10.1926H92.5011V7.69785ZM95.2082 9.6555L97.6392 9.10635L100.43 17.5321H97.5798L95.2082 9.6555Z" fill="#CDDBDE"/>
<path d="M102.383 0.178711H105.017V17.5323H102.383V0.178711ZM103.64 0.178711H110V2.69647H103.64V0.178711ZM103.64 7.66183H109.401V10.1686H103.64V7.66183ZM103.64 15.0145H110V17.5323H103.64V15.0145Z" fill="#CDDBDE"/>
<path d="M51.2533 40.6702L50.0477 41.8605L47.4836 39.7834V37.064L51.2533 40.6702ZM50.5878 40.5068L54.3245 37.2624V39.9939L51.2599 42.2113L47.4836 45.8876V43.1561L50.5878 40.5068ZM51.866 41.1952L54.3245 42.9577V45.7002L50.6406 42.2573L51.8671 41.1952H51.866Z" fill="#CDDBDE"/>
<path d="M0 19.2598H1.9437V32.0623H0V19.2598ZM1.2639 30.2219H3.2604C3.5607 30.2219 3.7917 30.132 3.9545 29.9534C4.1162 29.7747 4.1976 29.5204 4.1976 29.1916V22.1305C4.1976 21.8016 4.1162 21.5484 3.9545 21.3687C3.7928 21.19 3.5618 21.1001 3.2604 21.1001H1.2639V19.2598H3.3495C3.938 19.2598 4.4418 19.3683 4.8609 19.5853C5.2789 19.8023 5.599 20.118 5.8201 20.5312C6.0412 20.9456 6.1512 21.4454 6.1512 22.0329V29.288C6.1512 29.869 6.039 30.3677 5.8157 30.7853C5.5913 31.2018 5.2712 31.5186 4.8521 31.7367C4.4341 31.9538 3.9303 32.0623 3.3407 32.0623H1.2639V30.2219Z" fill="#CDDBDE"/>
<path d="M8.95071 31.8245C8.46781 31.5779 8.09821 31.2227 7.84191 30.7591C7.58561 30.2954 7.45801 29.7353 7.45801 29.0777V22.2456C7.45801 21.588 7.58561 21.0257 7.84191 20.5598C8.09821 20.0929 8.46781 19.7377 8.95071 19.4944C9.43361 19.2511 10.0166 19.1294 10.6997 19.1294C11.3828 19.1294 11.9658 19.2511 12.4498 19.4944C12.9327 19.7377 13.3023 20.0929 13.5586 20.5598C13.8149 21.0268 13.9425 21.5891 13.9425 22.2456V29.0777C13.9425 29.7353 13.8149 30.2954 13.5586 30.7591C13.3023 31.2227 12.9327 31.5779 12.4498 31.8245C11.9669 32.0711 11.3839 32.1939 10.6997 32.1939C10.0155 32.1939 9.43361 32.0711 8.95071 31.8245ZM11.3982 30.1343C11.5929 30.0291 11.7403 29.8778 11.8404 29.6805C11.9405 29.4843 11.9911 29.2476 11.9911 28.9713V22.341C11.9911 22.0648 11.9405 21.8291 11.8404 21.6318C11.7403 21.4356 11.5929 21.2854 11.3982 21.1824C11.2035 21.0794 10.9714 21.0279 10.6997 21.0279C10.428 21.0279 10.1959 21.0794 10.0012 21.1824C9.80651 21.2854 9.65911 21.4345 9.55901 21.6318C9.45891 21.828 9.40831 22.0648 9.40831 22.341V28.9713C9.40831 29.2476 9.45781 29.4832 9.55901 29.6805C9.65911 29.8767 9.80651 30.028 10.0012 30.1343C10.1959 30.2406 10.428 30.2932 10.6997 30.2932C10.9714 30.2932 11.2035 30.2406 11.3982 30.1343Z" fill="#CDDBDE"/>
<path d="M22.0374 19.2599H23.8051V32.0624H22.055V22.7466L22.1969 23.31L20.1641 29.8866H19.0685L17.0357 23.4854L17.2304 22.7455V32.0613H15.4275V19.2588H17.2568L19.6163 26.7605L22.0374 19.2588V19.2599Z" fill="#CDDBDE"/>
<path d="M27.3119 32.0623H25.3682V19.2598H27.3119V32.0623Z" fill="#CDDBDE"/>
<path d="M28.8762 19.2598H30.4756L33.7448 28.4429L33.4885 28.7246V19.2598H35.2914V32.0535H33.6744L30.4316 23.2748L30.6879 22.9843V32.0535H28.8762V19.2598Z" fill="#CDDBDE"/>
<path d="M38.7992 32.0623H36.8555V19.2598H38.7992V32.0623Z" fill="#CDDBDE"/>
<path d="M41.856 31.8245C41.3731 31.5779 41.0035 31.2227 40.7472 30.7591C40.4909 30.2954 40.3633 29.7353 40.3633 29.0777V22.2456C40.3633 21.588 40.4909 21.0257 40.7472 20.5598C41.0035 20.0929 41.3731 19.7377 41.856 19.4944C42.3389 19.2511 42.9219 19.1294 43.605 19.1294C44.2881 19.1294 44.8711 19.2511 45.3551 19.4944C45.838 19.7377 46.2076 20.0929 46.4639 20.5598C46.7202 21.0268 46.8478 21.5891 46.8478 22.2456V29.0777C46.8478 29.7353 46.7202 30.2954 46.4639 30.7591C46.2076 31.2227 45.838 31.5779 45.3551 31.8245C44.8722 32.0711 44.2892 32.1939 43.605 32.1939C42.9208 32.1939 42.3389 32.0711 41.856 31.8245ZM44.3035 30.1343C44.4982 30.0291 44.6456 29.8778 44.7457 29.6805C44.8458 29.4843 44.8964 29.2476 44.8964 28.9713V22.341C44.8964 22.0648 44.8458 21.8291 44.7457 21.6318C44.6456 21.4356 44.4982 21.2854 44.3035 21.1824C44.1088 21.0794 43.8767 21.0279 43.605 21.0279C43.3333 21.0279 43.1012 21.0794 42.9065 21.1824C42.7118 21.2854 42.5644 21.4345 42.4643 21.6318C42.3642 21.828 42.3136 22.0648 42.3136 22.341V28.9713C42.3136 29.2476 42.3631 29.4832 42.4643 29.6805C42.5644 29.8767 42.7118 30.028 42.9065 30.1343C43.1012 30.2406 43.3333 30.2932 43.605 30.2932C43.8767 30.2932 44.1088 30.2406 44.3035 30.1343ZM43.0583 29.4821L44.2155 28.0999L48.0765 31.2699L46.9193 32.6521L43.0583 29.4821Z" fill="#CDDBDE"/>
<path d="M49.8927 31.8288C49.4417 31.5855 49.1007 31.2303 48.8675 30.7634C48.6343 30.2965 48.5188 29.7353 48.5188 29.0776V19.2598H50.4625V29.139C50.4625 29.5084 50.5538 29.7923 50.7364 29.9885C50.919 30.1847 51.1786 30.2833 51.5141 30.2833C51.8496 30.2833 52.1191 30.1847 52.305 29.9885C52.4909 29.7923 52.5833 29.5084 52.5833 29.139V19.2598H54.527V29.0776C54.527 29.7353 54.4082 30.2976 54.1695 30.7634C53.9308 31.2303 53.5876 31.5855 53.1399 31.8288C52.6922 32.0722 52.1499 32.1938 51.5141 32.1938C50.8783 32.1938 50.3437 32.0722 49.8927 31.8288Z" fill="#CDDBDE"/>
<path d="M55.8965 19.2598H57.8402V32.0623H55.8965V19.2598ZM56.8249 19.2598H61.5164V21.1177H56.8249V19.2598ZM56.8249 24.7809H61.0753V26.63H56.8249V24.7809ZM56.8249 30.2044H61.5164V32.0623H56.8249V30.2044Z" fill="#CDDBDE"/>
<path d="M66.3762 19.251H68.2935V32.0623H66.3762V19.251ZM67.2595 24.8071H69.6102C69.8511 24.8071 70.0612 24.7633 70.2372 24.6756C70.4143 24.5879 70.5474 24.4597 70.6387 24.2931C70.73 24.1254 70.7784 23.9193 70.785 23.6727V22.308C70.785 22.0559 70.7388 21.8389 70.6475 21.6569C70.5562 21.475 70.4209 21.3358 70.2405 21.2382C70.0612 21.1418 69.85 21.0924 69.6091 21.0924H67.2584V19.2521H69.4672C70.1569 19.2521 70.7454 19.365 71.2349 19.5908C71.7244 19.8166 72.0984 20.1487 72.3569 20.586C72.6165 21.0234 72.7463 21.5473 72.7463 22.1579V23.6551C72.7463 24.2832 72.6165 24.8214 72.3569 25.2708C72.0973 25.7202 71.7222 26.0622 71.2305 26.2967C70.7388 26.5313 70.1514 26.6486 69.4672 26.6486H67.2584V24.8082L67.2595 24.8071ZM69.2571 26.2507L71.0512 25.8452L73.1104 32.0612H71.0072L69.2582 26.2496L69.2571 26.2507Z" fill="#CDDBDE"/>
<path d="M74.5493 19.2598H76.493V32.0623H74.5493V19.2598ZM75.4777 19.2598H80.1692V21.1177H75.4777V19.2598ZM75.4777 24.7809H79.7281V26.63H75.4777V24.7809ZM75.4777 30.2044H80.1692V32.0623H75.4777V30.2044Z" fill="#CDDBDE"/>
<path d="M81.3889 19.2598H82.9883L86.2575 28.4429L86.0012 28.7246V19.2598H87.8041V32.0535H86.1871L82.9443 23.2748L83.2006 22.9843V32.0535H81.3889V19.2598Z" fill="#CDDBDE"/>
<path d="M91.6916 19.2598H93.2294L96.2511 32.0623H94.2634L92.4605 22.7728L90.6576 32.0623H88.6699L91.6916 19.2598ZM90.6664 27.862H94.325V29.6673H90.6664V27.862Z" fill="#CDDBDE"/>
<path d="M97.8461 31.8288C97.3951 31.5855 97.0541 31.2303 96.8209 30.7634C96.5877 30.2965 96.4722 29.7353 96.4722 29.0776V19.2598H98.4159V29.139C98.4159 29.5084 98.5072 29.7923 98.6898 29.9885C98.8724 30.1847 99.132 30.2833 99.4675 30.2833C99.803 30.2833 100.072 30.1847 100.258 29.9885C100.444 29.7923 100.537 29.5084 100.537 29.139V19.2598H102.48V29.0776C102.48 29.7353 102.362 30.2976 102.123 30.7634C101.884 31.2303 101.541 31.5855 101.093 31.8288C100.646 32.0722 100.103 32.1938 99.4675 32.1938C98.8317 32.1938 98.2971 32.0722 97.8461 31.8288Z" fill="#CDDBDE"/>
<path d="M103.85 19.2598H105.794V32.0623H103.85V19.2598ZM105.114 30.2219H107.11C107.411 30.2219 107.642 30.132 107.804 29.9534C107.966 29.7747 108.047 29.5204 108.047 29.1916V22.1305C108.047 21.8016 107.966 21.5484 107.804 21.3687C107.643 21.19 107.412 21.1001 107.11 21.1001H105.114V19.2598H107.199C107.788 19.2598 108.292 19.3683 108.711 19.5853C109.129 19.8023 109.449 20.118 109.67 20.5312C109.891 20.9445 110.001 21.4454 110.001 22.0329V29.288C110.001 29.869 109.889 30.3677 109.666 30.7853C109.441 31.2018 109.121 31.5186 108.702 31.7367C108.284 31.9538 107.78 32.0623 107.191 32.0623H105.114V30.2219Z" fill="#CDDBDE"/>
</g>
<defs>
<clipPath id="clip0_20_1845">
<rect width="110" height="100" fill="white"/>
</clipPath>
</defs>
</svg>
